<mxfile host="app.diagrams.net" modified="2024-05-24T02:18:28.301Z" agent="Mozilla/5.0 (Windows NT 10.0; Win64; x64) AppleWebKit/537.36 (KHTML, like Gecko) Chrome/125.0.0.0 Safari/537.36 Edg/125.0.0.0" version="24.4.7" etag="I8NzzX6864ibWQKDSor-" type="github">
  <diagram name="第 1 页" id="jYVDM40InbbQ7FpN4Fkt">
    <mxGraphModel>
      <root>
        <mxCell id="0" />
        <mxCell id="1" parent="0" />
      </root>
    </mxGraphModel>
  </diagram>
</mxfile>
